<svg xmlns="http://www.w3.org/2000/svg" viewBox="0 0 120 120" focusable="false" aria-hidden="true" width="120" height="120" fill="none" class="css-1j7l2m6"><path fill-rule="evenodd" clip-rule="evenodd" d="M40.2223 15C33.318 15 27.6735 16.4827 23.1717 19.1231C18.6594 21.7698 15.571 25.4186 13.5457 29.3108C9.59151 36.9098 9.62884 45.499 10.593 50.4327C13.1027 63.2751 22.0972 76.7358 31.5186 86.7905C36.2887 91.8812 41.354 96.3 46.0789 99.4881C50.5575 102.51 55.5562 105 60.0001 105C64.444 105 69.4427 102.51 73.9213 99.4881C78.6462 96.3 83.7115 91.8812 88.4816 86.7905C97.903 76.7358 106.897 63.2751 109.407 50.4327C110.371 45.499 110.409 36.9098 106.455 29.3108C104.429 25.4186 101.341 21.7698 96.8285 19.1231C92.3267 16.4827 86.6822 15 79.7779 15C74.2905 15 69.5521 17.478 65.892 20.5653C63.6296 22.4736 61.6515 24.7163 60.0001 27.0366C58.3487 24.7163 56.3706 22.4736 54.1082 20.5653C50.4481 17.478 45.7097 15 40.2223 15Z" fill="url(#paint0_linear_1861_3922)"/><defs><linearGradient id="paint0_linear_1861_3922" x1="60.0001" y1="15" x2="60.0001" y2="105" gradientUnits="userSpaceOnUse"><stop stop-color="#B634C1"/><stop offset="1" stop-color="#FF8BA7"/></linearGradient></defs></svg>